<?xml version="1.0" encoding="UTF-8"?>
<!DOCTYPE svg PUBLIC "-//W3C//DTD SVG 1.1//EN" "http://www.w3.org/Graphics/SVG/1.1/DTD/svg11.dtd">
<!-- Creator: CorelDRAW -->
<svg xmlns="http://www.w3.org/2000/svg" xml:space="preserve" width="12.532mm" height="12.532mm" version="1.1" style="shape-rendering:geometricPrecision; text-rendering:geometricPrecision; image-rendering:optimizeQuality; fill-rule:evenodd; clip-rule:evenodd"
viewBox="0 0 90.69 90.69"
 xmlns:xlink="http://www.w3.org/1999/xlink"
 xmlns:xodm="http://www.corel.com/coreldraw/odm/2003">
 <defs>
  <style type="text/css">
   <![CDATA[
    .str0 {stroke:#373435;stroke-width:1.45;stroke-miterlimit:22.9256}
    .fil0 {fill:#E6E7E8}
    .fil2 {fill:#4B4B4D}
    .fil1 {fill:black}
    .fil5 {fill:#490B00}
    .fil6 {fill:#CD460E}
    .fil4 {fill:#F05515}
    .fil3 {fill:#F8A94C}
   ]]>
  </style>
 </defs>
 <g id="Camada_x0020_1">
  <metadata id="CorelCorpID_0Corel-Layer"/>
  <rect class="fil0 str0" x="0.72" y="0.72" width="89.25" height="89.25" rx="8.57" ry="6.44"/>
  <g>
   <path class="fil1" d="M42.87 63.03c3.34,0.21 5.41,0.37 8.91,0.36 1.3,-0 1.62,-0.01 2.76,-0.14 0.28,-0.03 0.56,-0.07 0.86,-0.12 1.15,-0.2 6.2,0.11 6.2,1.35l0.02 8.06c0,1.52 -7.12,0.35 -7.23,0.43 -1.41,1.02 -0.62,8.92 -0.62,10.84l-8.11 0.16c-0.05,-1.58 1.02,-10.89 0.38,-11.53 -4.11,0.18 -7.64,1.49 -7.73,-0.36l-0.37 -7.83c-0.15,-3.15 4.89,-1.22 4.93,-1.2zm-0.33 -0.13l-26.24 -27.9c0,1.36 0.44,1.79 1.07,2.74 0.7,1.06 1.61,2.33 2.36,3.38l7.54 10.81c0.15,0.23 0.31,0.43 0.46,0.66l2.12 3.05c0.09,0.14 0.15,0.22 0.24,0.35l3.29 4.72c0.16,0.24 0.32,0.44 0.48,0.68 0.08,0.12 0.15,0.21 0.23,0.33 0.09,0.13 0.15,0.23 0.24,0.35 0.1,0.14 0.67,0.88 0.67,1.03l-0.52 3.5c-0.11,0.65 -0.21,1.36 -0.3,2.01l-0.9 5.99c-0.48,3.31 -1.04,6.68 -1.49,10 -0.04,0.28 -0.24,1.84 -0.31,1.99l32.4 0 0 -20.06c0,-0.15 3.48,-7.1 3.82,-7.78 0.13,-0.27 0.25,-0.5 0.38,-0.77l1.55 -3.13c0.07,-0.15 0.12,-0.25 0.2,-0.4l2.89 -5.85c0.54,-1.09 0.99,-2.24 1.18,-3.47 0.06,-0.37 0.08,-0.68 0.13,-1.06 0.07,-0.55 0.09,-1.1 0.09,-1.65 0,-0.23 0.04,-0.31 0.04,-0.56 -0.01,-0.78 -0,-1.56 -0,-2.34 -0.13,0.08 -0.21,0.23 -0.32,0.34 -0.28,0.28 -0.58,0.55 -0.83,0.85 -0.06,0.07 -0.1,0.11 -0.17,0.18 -0.24,0.24 -0.45,0.45 -0.68,0.68l-2.13 2.24c-0.06,0.07 -0.11,0.11 -0.17,0.18 -0.28,0.28 -0.58,0.57 -0.84,0.87 -0.25,0.3 -0.56,0.56 -0.84,0.84l-0.66 0.7c-0.12,0.12 -0.21,0.21 -0.33,0.33 -0.13,0.13 -0.2,0.23 -0.33,0.37 -0.23,0.23 -0.46,0.45 -0.68,0.68l-2.15 2.26c-0.06,0.07 -0.11,0.11 -0.18,0.17 -0.12,0.12 -0.25,0.22 -0.34,0.36l-6.78 -3.5c-0.37,-0.18 -0.78,-0.36 -1.13,-0.58 -0.35,-0.21 -0.77,-0.38 -1.14,-0.57 -0.01,0.3 -0.62,3.35 -0.67,3.63 -0.23,1.19 -0.45,2.4 -0.68,3.62l-1.19 6.33c-0.03,0.17 -0.06,0.28 -0.09,0.44l-0.07 0.35c-0,0.01 -0.01,0.02 -0.01,0.03l-0.03 0.08c-0.61,-2.63 -1.27,-5.09 -2.22,-7.57 -0.63,-1.67 -1.41,-3.26 -2.22,-4.84 -0.05,-0.09 -0.08,-0.13 -0.13,-0.22l-0.38 -0.67c-0.35,-0.57 -0.68,-1.17 -1.08,-1.72 -0.59,-0.81 -1.16,-1.64 -1.81,-2.42 -0.32,-0.38 -0.63,-0.77 -0.98,-1.12 -0.15,-0.15 -0.22,-0.22 -0.35,-0.38 -0.19,-0.23 -0.48,-0.48 -0.7,-0.7l-1.28 -1.17c-0.68,-0.61 -1.43,-1.18 -2.18,-1.71 -1.25,-0.88 -2.58,-1.67 -3.96,-2.37l-0.94 -0.45c-0.31,-0.16 -0.66,-0.35 -1,-0.43 0.03,-0.11 0.26,-0.53 0.34,-0.68l0.71 -1.35c0.12,-0.24 0.23,-0.45 0.36,-0.69l1.42 -2.74c0.15,0.03 0.24,0.11 0.35,0.17 0.1,0.06 0.24,0.13 0.35,0.18 1.95,0.87 3.67,1.57 5.98,1.57 1.77,0 3.17,-0.5 4.29,-1.16 0.7,-0.41 1.3,-0.95 1.84,-1.55 0.33,-0.37 0.64,-0.79 0.87,-1.23 0.33,-0.64 0.63,-1.27 0.7,-2.03 0.04,-0.43 0.02,-0.81 -0.21,-1.08 -0.11,-0.13 -0.25,-0.19 -0.41,-0.25l-2.31 -1.11c-0.54,-0.28 -1.32,-0.66 -1.87,-0.89 -0.47,-0.19 -0.91,-0.43 -1.37,-0.66l-0.92 -0.44c-0.16,-0.08 -0.31,-0.14 -0.48,-0.22 -0.31,-0.16 -0.62,-0.29 -0.92,-0.44 -1.37,-0.69 -2.79,-1.3 -4.16,-1.99 -1.68,-0.84 -3.42,-1.6 -5.1,-2.45 -1.41,-0.7 -2.5,-1.27 -3.62,0.05 -0.14,0.17 -0.32,0.44 -0.43,0.62l-0.62 0.96c-0.08,0.12 -0.12,0.2 -0.2,0.32l-2.25 3.48c-0.08,0.12 -0.13,0.19 -0.21,0.32l-2.06 3.18c-0.14,0.21 -0.26,0.41 -0.4,0.62l-2.88 4.46c-0.46,0.69 -2.15,3.26 -2.44,3.85 -0.19,0.39 -0.51,1.03 -0.51,1.58l26.24 27.9z"/>
   <path id="_1" class="fil2" d="M42.87 63.03c3.34,0.21 5.41,0.37 8.91,0.36 1.3,-0 1.62,-0.01 2.76,-0.14 0.28,-0.03 0.56,-0.07 0.86,-0.12 1.15,-0.2 6.2,0.11 6.2,1.35l0.02 8.06c0,1.52 -7.12,0.35 -7.23,0.43 -1.41,1.02 -0.62,8.92 -0.62,10.84l-8.11 0.16c-0.05,-1.58 1.02,-10.89 0.38,-11.53 -4.11,0.18 -7.64,1.49 -7.73,-0.36l-0.37 -7.83c-0.15,-3.15 4.89,-1.22 4.93,-1.2zm-0.33 -0.13l-26.24 -27.9c0,1.36 0.44,1.79 1.07,2.74 0.7,1.06 1.61,2.33 2.36,3.38l7.54 10.81c0.15,0.23 0.31,0.43 0.46,0.66l2.12 3.05c0.09,0.14 0.15,0.22 0.24,0.35l3.29 4.72c0.16,0.24 0.32,0.44 0.48,0.68 0.08,0.12 0.15,0.21 0.23,0.33 0.09,0.13 0.15,0.23 0.24,0.35 0.1,0.14 0.67,0.88 0.67,1.03l-0.52 3.5c-0.11,0.65 -0.21,1.36 -0.3,2.01l-0.9 5.99c-0.48,3.31 -1.04,6.68 -1.49,10 -0.04,0.28 -0.24,1.84 -0.31,1.99l32.4 0 0 -20.06c0,-0.15 3.48,-7.1 3.82,-7.78 0.13,-0.27 0.25,-0.5 0.38,-0.77l1.55 -3.13c0.07,-0.15 0.12,-0.25 0.2,-0.4l2.89 -5.85c0.54,-1.09 0.99,-2.24 1.18,-3.47 0.06,-0.37 0.08,-0.68 0.13,-1.06 0.07,-0.55 0.09,-1.1 0.09,-1.65 0,-0.23 0.04,-0.31 0.04,-0.56 -0.01,-0.78 -0,-1.56 -0,-2.34 -0.13,0.08 -0.21,0.23 -0.32,0.34 -0.28,0.28 -0.58,0.55 -0.83,0.85 -0.06,0.07 -0.1,0.11 -0.17,0.18 -0.24,0.24 -0.45,0.45 -0.68,0.68l-2.13 2.24c-0.06,0.07 -0.11,0.11 -0.17,0.18 -0.28,0.28 -0.58,0.57 -0.84,0.87 -0.25,0.3 -0.56,0.56 -0.84,0.84l-0.66 0.7c-0.12,0.12 -0.21,0.21 -0.33,0.33 -0.13,0.13 -0.2,0.23 -0.33,0.37 -0.23,0.23 -0.46,0.45 -0.68,0.68l-2.15 2.26c-0.06,0.07 -0.11,0.11 -0.18,0.17 -0.12,0.12 -0.25,0.22 -0.34,0.36l-6.78 -3.5c-0.37,-0.18 -0.78,-0.36 -1.13,-0.58 -0.35,-0.21 -0.77,-0.38 -1.14,-0.57 -0.01,0.3 -0.62,3.35 -0.67,3.63 -0.23,1.19 -0.45,2.4 -0.68,3.62l-1.19 6.33c-0.03,0.17 -0.06,0.28 -0.09,0.44l-0.07 0.35c-0,0.01 -0.01,0.02 -0.01,0.03l-0.03 0.08c-0.61,-2.63 -1.27,-5.09 -2.22,-7.57 -0.63,-1.67 -1.41,-3.26 -2.22,-4.84 -0.05,-0.09 -0.08,-0.13 -0.13,-0.22l-0.38 -0.67c-0.35,-0.57 -0.68,-1.17 -1.08,-1.72 -0.59,-0.81 -1.16,-1.64 -1.81,-2.42 -0.32,-0.38 -0.63,-0.77 -0.98,-1.12 -0.15,-0.15 -0.22,-0.22 -0.35,-0.38 -0.19,-0.23 -0.48,-0.48 -0.7,-0.7l-1.28 -1.17c-0.68,-0.61 -1.43,-1.18 -2.18,-1.71 -1.25,-0.88 -2.58,-1.67 -3.96,-2.37l-0.94 -0.45c-0.31,-0.16 -0.66,-0.35 -1,-0.43 0.03,-0.11 0.26,-0.53 0.34,-0.68l0.71 -1.35c0.12,-0.24 0.23,-0.45 0.36,-0.69l1.42 -2.74c0.15,0.03 0.24,0.11 0.35,0.17 0.1,0.06 0.24,0.13 0.35,0.18 1.95,0.87 3.67,1.57 5.98,1.57 1.77,0 3.17,-0.5 4.29,-1.16 0.7,-0.41 1.3,-0.95 1.84,-1.55 0.33,-0.37 0.64,-0.79 0.87,-1.23 0.33,-0.64 0.63,-1.27 0.7,-2.03 0.04,-0.43 0.02,-0.81 -0.21,-1.08 -0.11,-0.13 -0.25,-0.19 -0.41,-0.25l-2.31 -1.11c-0.54,-0.28 -1.32,-0.66 -1.87,-0.89 -0.47,-0.19 -0.91,-0.43 -1.37,-0.66l-0.92 -0.44c-0.16,-0.08 -0.31,-0.14 -0.48,-0.22 -0.31,-0.16 -0.62,-0.29 -0.92,-0.44 -1.37,-0.69 -2.79,-1.3 -4.16,-1.99 -1.68,-0.84 -3.42,-1.6 -5.1,-2.45 -1.41,-0.7 -2.5,-1.27 -3.62,0.05 -0.14,0.17 -0.32,0.44 -0.43,0.62l-0.62 0.96c-0.08,0.12 -0.12,0.2 -0.2,0.32l-2.25 3.48c-0.08,0.12 -0.13,0.19 -0.21,0.32l-2.06 3.18c-0.14,0.21 -0.26,0.41 -0.4,0.62l-2.88 4.46c-0.46,0.69 -2.15,3.26 -2.44,3.85 -0.19,0.39 -0.51,1.03 -0.51,1.58l26.24 27.9zm1.13 1.45l-0.85 -0.05 -0.29 -0.07c-0.01,-0.01 -0.77,-0.29 -1.7,-0.44 -0.52,-0.09 -1.08,-0.12 -1.5,-0.02 -0.22,0.05 -0.39,0.13 -0.41,0.21 -0.01,0.03 -0.01,0.1 -0.01,0.18l0.37 7.83c0.01,0.14 0.36,-0.2 0.95,-0.23 0.59,-0.03 1.34,-0.13 2.17,-0.24l0 0c1.08,-0.15 2.31,-0.31 3.61,-0.37l0.61 0.26c0.87,0.87 0.5,5.58 0.22,9.16 -0.06,0.78 -0.12,1.51 -0.16,2.09l6.07 -0.12c-0.01,-0.16 -0.02,-0.32 -0.03,-0.5 -0.17,-3.35 -0.46,-9 1.2,-10.2 0.28,-0.2 0.68,-0.16 1.3,-0.09 0.94,0.11 2.61,0.29 3.93,0.29 0.82,-0 1.49,0.86 1.49,0.48l-0.02 -7.88c-0.09,-0.08 -0.55,0.1 -1.19,-0.03 -1.03,-0.2 -2.24,-0.29 -3.09,-0.29 -0.36,0 -0.65,0.02 -0.82,0.05l-0.02 0.01 -0.43 0.07 -0 0c-0.2,0.03 -0.34,0.05 -0.45,0.06l-0 0c-0.54,0.06 -0.92,0.1 -1.37,0.12 -0.38,0.02 -0.8,0.02 -1.47,0.02 -3.24,0.01 -5.25,-0.12 -8.11,-0.31zm16.97 0.12l-0 0c0,0 0,0 0,0.01l0 -0.01zm-44.23 -26.25c-0.64,-0.93 -1.07,-1.56 -1.07,-3.22 0,-0.92 0.41,-1.75 0.67,-2.27l0 -0.01 0.01 -0.01 0 0c0.14,-0.28 0.47,-0.83 0.86,-1.43 0.63,-0.99 1.39,-2.14 1.66,-2.56l0 0 2.87 -4.44 0 -0.01 0.19 -0.3 0.21 -0.32 0 0 2.03 -3.14 -0 -0c0.08,-0.13 0.14,-0.22 0.21,-0.32l-0 -0 0.04 -0.06 0 0 2.23 -3.45 -0 -0 0.09 -0.15 -0 -0c0.04,-0.07 0.08,-0.14 0.14,-0.21l0 0 0.6 -0.93 0 0c0.07,-0.11 0.15,-0.25 0.25,-0.38l0 -0.01c0.08,-0.11 0.17,-0.24 0.27,-0.36l0 -0.01c1.55,-1.81 2.88,-1.15 4.58,-0.3l0.01 0.01 0.03 0.01 0 -0c0.86,0.43 1.68,0.82 2.51,1.2 0.89,0.41 1.77,0.83 2.6,1.24 0.71,0.35 1.39,0.67 2.06,0.99 0.72,0.34 1.44,0.67 2.1,1l-0 0c0.12,0.06 0.27,0.13 0.43,0.2l0 0c0.08,0.04 0.13,0.06 0.49,0.24l0 -0c0.12,0.06 0.16,0.08 0.2,0.1l0 -0c0.09,0.04 0.18,0.08 0.27,0.13l-0 0 0.91 0.44 0.02 0.01 0.32 0.16 0 0c0.32,0.16 0.64,0.33 0.98,0.47 0.3,0.12 0.65,0.28 0.98,0.45l-0 0c0.43,0.2 0.72,0.35 0.95,0.47l0 0 2.3 1.11c0.09,0.04 0.17,0.08 0.27,0.13l0 -0c0.15,0.08 0.3,0.19 0.44,0.35 0.3,0.34 0.46,0.75 0.53,1.2 0.05,0.34 0.05,0.67 0.02,0.99 -0.05,0.54 -0.17,1.03 -0.35,1.48l0 0c-0.16,0.41 -0.33,0.77 -0.51,1.12l-0 0c-0.14,0.28 -0.3,0.53 -0.46,0.76l-0 0.01c-0.18,0.25 -0.37,0.49 -0.57,0.72 -0.3,0.33 -0.62,0.65 -0.96,0.95 -0.35,0.3 -0.72,0.57 -1.11,0.8 -0.61,0.36 -1.3,0.68 -2.09,0.91 -0.78,0.23 -1.65,0.37 -2.6,0.37 -1.23,0 -2.3,-0.19 -3.34,-0.5 -1.01,-0.3 -1.95,-0.7 -2.95,-1.15l-0.02 -0.01 -0 -0 -0.99 1.91 -0.02 0.03 -0.16 0.3 0 0 -0.18 0.35 -0.01 0.02 -0.33 0.63 0.76 0.37 0.01 0.01c0.72,0.36 1.42,0.74 2.1,1.14 0.67,0.4 1.34,0.83 1.98,1.29 0.39,0.27 0.78,0.56 1.15,0.85 0.36,0.28 0.73,0.59 1.11,0.93l0.01 0.01 1.28 1.17 0.02 0.02 0.22 0.21 0 -0c0.19,0.18 0.38,0.37 0.56,0.57l0 0.01 0.13 0.15 0 0 0.14 0.15 0 -0c0.32,0.32 0.58,0.63 0.84,0.94l-0 0 0.21 0.26 0 -0c0.55,0.66 1.02,1.31 1.49,1.95l0.38 0.52c0.33,0.46 0.62,0.95 0.91,1.43l0 -0 0.23 0.39 0.01 0.03 0.37 0.65 0 -0 0.04 0.07 0 -0c0.03,0.05 0.07,0.1 0.12,0.21 0.41,0.8 0.82,1.61 1.21,2.44 0.38,0.82 0.74,1.66 1.08,2.55 0.47,1.23 0.87,2.45 1.22,3.66l0.57 -3.04 0 0 0.22 -1.18c0.18,-0.98 0.36,-1.96 0.46,-2.46l0 -0.01 0.05 -0.27c0.15,-0.78 0.59,-2.96 0.59,-3.08l1.33 -1.15c0.17,0.09 0.3,0.15 0.42,0.21 0.26,0.13 0.54,0.25 0.75,0.38 0.23,0.14 0.51,0.27 0.77,0.4l0.3 0.14 0.02 0.01 6.26 3.23 0.08 -0.08 2.14 -2.24 -0 -0c0.14,-0.15 0.32,-0.33 0.5,-0.5l-0 -0 0.21 -0.21 0 0 0.1 -0.12c0.05,-0.06 0.11,-0.13 0.23,-0.25l0 0 0.32 -0.32 0.65 -0.68 0.02 -0.02c0.14,-0.14 0.21,-0.2 0.3,-0.29l0 0c0.17,-0.16 0.33,-0.31 0.47,-0.48 0.23,-0.27 0.49,-0.53 0.75,-0.79l0.16 -0.16 0.01 -0.01 0.05 -0.05 0 0 0.04 -0.03 0.05 -0.06 2.13 -2.24 0.02 -0.02 0.68 -0.68 0 -0.01 0.04 -0.04 0.01 -0 0.03 -0.03c0.23,-0.29 0.48,-0.53 0.72,-0.76l0 0 0.2 -0.19 0 0 0.04 -0.04 -0 -0c0.11,-0.14 0.23,-0.28 0.43,-0.41l1.4 1.14 -0 0.74c0,0.53 -0,1.06 0,1.59l0 0.01c0,0.25 -0.01,0.37 -0.03,0.48l-0 0.02 -0 0.06 -0 0c-0,0.33 -0.01,0.64 -0.02,0.91 -0.02,0.32 -0.04,0.63 -0.08,0.95 -0.02,0.16 -0.03,0.29 -0.05,0.42l-0 0c-0.02,0.21 -0.04,0.42 -0.08,0.69l-0 0c-0.11,0.73 -0.29,1.42 -0.52,2.07 -0.22,0.62 -0.49,1.24 -0.79,1.84l0 0 -2.89 5.85 -0 0.01 -0.2 0.39 0 0 -1.55 3.13 -0 0.01 -0.38 0.77 -0.09 0.18c-0.61,1.22 -3.57,6.69 -3.57,6.91l0 20.06 -0.97 1.28 -32.4 0 -0.82 -1.95c0.04,-0.08 0.11,-1.01 0.16,-1.41l0.02 -0.13 0 -0.01c0.26,-1.92 0.56,-3.85 0.86,-5.78 0.21,-1.35 0.42,-2.7 0.64,-4.24l0 -0.01 0.9 -5.99 0 0 0.06 -0.4 0 -0.01c0.07,-0.51 0.15,-1.04 0.24,-1.6l-0 -0 0.5 -3.33c-0.04,-0.24 -0.28,0.07 -0.36,-0.03l-0.01 -0.01 -0.02 -0.03c-0.1,-0.14 -0.15,-0.21 -0.2,-0.28l0 -0.01 -0.06 -0.09 -0 0 -0.11 -0.15 -0 -0.01 -0.12 -0.18 -0.01 -0.02c-0.04,-0.07 -0.12,-0.17 -0.2,-0.28 -0.11,-0.15 -0.21,-0.29 -0.28,-0.39l0 -0 -3.26 -4.68 -0 0 -0.12 -0.17 -0.02 -0.03 -0.12 -0.18 -2.11 -3.03 -0.01 -0.02c-0.08,-0.12 -0.13,-0.19 -0.19,-0.27 -0.08,-0.11 -0.17,-0.23 -0.26,-0.37l-0 0 -7.54 -10.81 0 -0 -0.36 -0.5 0 -0c-0.68,-0.96 -1.45,-2.04 -2.01,-2.89l-0 0 -0.25 -0.37z"/>
  </g>
  <g>
   <path class="fil3" d="M57 40.28c0.24,0 0.3,-0.17 0.46,-0.34l0.84 -0.91c0.07,-0.08 0.08,-0.11 0.16,-0.19 0.06,-0.07 0.12,-0.1 0.17,-0.18 0.07,-0.08 0.08,-0.11 0.16,-0.19 0.07,-0.07 0.12,-0.11 0.17,-0.18 0.39,-0.48 1.67,-1.87 2.19,-2.43l0.99 -1.11c0.22,-0.28 0.47,-0.49 0.68,-0.75 0.12,-0.15 0.22,-0.23 0.33,-0.37 0.11,-0.14 0.21,-0.22 0.33,-0.37 0.11,-0.14 0.21,-0.22 0.33,-0.37l5.36 -5.93c0.42,-0.48 0.95,-1.01 1.34,-1.5 0.28,-0.35 0.28,-0.61 0.1,-1.04 -0.2,-0.49 -0.46,-0.93 -0.78,-1.35 -0.38,-0.52 -0.83,-1.09 -1.29,-1.54 -0.3,-0.29 -0.55,-0.61 -0.86,-0.89l-0.54 -0.51c-0.08,-0.08 -0.1,-0.09 -0.19,-0.16 -0.07,-0.06 -0.11,-0.11 -0.18,-0.17 -0.52,-0.52 -1.8,-1.51 -2.38,-1.89 -0.45,-0.3 -1.4,-0.92 -2.02,-0.92 -0.19,0 -0.29,0.17 -0.38,0.28l-3.66 5c-1.15,1.53 -2.25,3.11 -3.4,4.64 -0.1,0.13 -0.18,0.26 -0.28,0.39 -1.34,1.78 -2.62,3.62 -3.96,5.41l-0.57 0.76c-0.11,0.15 -0.21,0.24 -0.17,0.44 0.06,0.28 0.32,0.65 0.47,0.86l2.43 2.57c0.87,0.77 2.04,1.81 2.98,2.37 0.3,0.18 0.78,0.56 1.16,0.56z"/>
   <path id="_1_0" class="fil2" d="M58.02 40.99c-0.25,0.32 -0.46,0.57 -1.03,0.57 -0.52,0 -1,-0.32 -1.38,-0.56l-0.17 -0.11 0 0c-0.96,-0.57 -2.12,-1.59 -3.01,-2.38l-0.11 -0.1 -0.07 -0.07 -2.43 -2.57 -0.08 -0.1c-0.09,-0.13 -0.22,-0.31 -0.34,-0.51 -0.16,-0.27 -0.31,-0.59 -0.37,-0.91l0 -0.01c-0.18,-0.9 0.06,-1.21 0.39,-1.63l0.02 -0.03 0.57 -0.76 0 -0c0.59,-0.79 1.22,-1.66 1.84,-2.52 0.68,-0.95 1.37,-1.9 2.1,-2.87l0.14 -0.19 0.14 -0.19 0.02 -0.02c0.56,-0.74 1.13,-1.54 1.71,-2.33 0.54,-0.75 1.09,-1.5 1.68,-2.29l-0 -0 3.66 -5 0.02 -0.02 0.01 -0.01c0.21,-0.28 0.47,-0.64 1.05,-0.64 0.45,0 0.96,0.2 1.43,0.44 0.4,0.21 0.79,0.46 1.03,0.62 0.34,0.22 0.88,0.62 1.38,1.02 0.44,0.35 0.87,0.72 1.14,0.99l0.02 0.02 0.05 0.05 0 -0 0.03 0.03 -0 0 0.03 0.03 0 -0c0.07,0.06 0.12,0.09 0.22,0.2l0.52 0.49 0 -0c0.18,0.17 0.37,0.37 0.55,0.57l0 0c0.11,0.12 0.23,0.25 0.33,0.35 0.25,0.25 0.5,0.53 0.75,0.83 0.23,0.28 0.46,0.57 0.66,0.85l0 0c0.18,0.24 0.35,0.49 0.5,0.76 0.17,0.28 0.31,0.58 0.44,0.89 0.17,0.43 0.26,0.83 0.22,1.28l0 0.01c-0.04,0.48 -0.2,0.87 -0.51,1.27 -0.29,0.37 -0.61,0.71 -0.91,1.04 -0.19,0.2 -0.38,0.41 -0.47,0.51l-0.01 0.01 -5.32 5.88c-0.06,0.08 -0.15,0.17 -0.23,0.25l-0 0.01c-0.02,0.02 -0.04,0.04 -0.08,0.09l-0.01 0.01c-0.1,0.13 -0.18,0.21 -0.26,0.29l-0 -0c-0.01,0.01 -0.03,0.03 -0.06,0.08l-0 0c-0.09,0.12 -0.17,0.2 -0.25,0.28 -0.03,0.03 -0.06,0.06 -0.09,0.1 -0.15,0.2 -0.29,0.34 -0.42,0.48 -0.1,0.1 -0.2,0.21 -0.27,0.29l-0.04 0.05 -0.99 1.11 -0.01 0.01 -0.08 0.09c-0.54,0.58 -1.7,1.83 -2.05,2.28l-0 0c-0.09,0.11 -0.15,0.17 -0.21,0.23l-0.03 0.03 0 0 -0 0.01 0 -0.01 -0 -0 -0.01 0.01 0 0 -0.01 0.01 -0.06 0.08 -0.03 0.03c-0.07,0.08 -0.12,0.14 -0.18,0.19l0 0 -0.06 0.05 -0.01 0.02 -0.07 0.09 -0.06 0.06 -0.83 0.9 0 0 -0.06 0.07zm-1.03 -0.7c0.24,0 0.3,-0.17 0.46,-0.34l0.84 -0.91c0.07,-0.08 0.08,-0.11 0.16,-0.19 0.06,-0.07 0.12,-0.1 0.17,-0.18 0.07,-0.08 0.08,-0.11 0.16,-0.19 0.07,-0.07 0.12,-0.11 0.17,-0.18 0.39,-0.48 1.67,-1.87 2.19,-2.43l0.99 -1.11c0.22,-0.28 0.47,-0.49 0.68,-0.75 0.12,-0.15 0.22,-0.23 0.33,-0.37 0.11,-0.14 0.21,-0.22 0.33,-0.37 0.11,-0.14 0.21,-0.22 0.33,-0.37l5.36 -5.93c0.42,-0.48 0.95,-1.01 1.34,-1.5 0.28,-0.35 0.28,-0.61 0.1,-1.04 -0.2,-0.49 -0.46,-0.93 -0.78,-1.35 -0.38,-0.52 -0.83,-1.09 -1.29,-1.54 -0.3,-0.29 -0.55,-0.61 -0.86,-0.89l-0.54 -0.51c-0.08,-0.08 -0.1,-0.09 -0.19,-0.16 -0.07,-0.06 -0.11,-0.11 -0.18,-0.17 -0.52,-0.52 -1.8,-1.51 -2.38,-1.89 -0.45,-0.3 -1.4,-0.92 -2.02,-0.92 -0.19,0 -0.29,0.17 -0.38,0.28l-3.66 5c-1.15,1.53 -2.25,3.11 -3.4,4.64 -0.1,0.13 -0.18,0.26 -0.28,0.39 -1.34,1.78 -2.62,3.62 -3.96,5.41l-0.57 0.76c-0.11,0.15 -0.21,0.24 -0.17,0.44 0.06,0.28 0.32,0.65 0.47,0.86l2.43 2.57c0.87,0.77 2.04,1.81 2.98,2.37 0.3,0.18 0.78,0.56 1.16,0.56z"/>
  </g>
  <g>
   <path class="fil4" d="M44.03 19.31c0.36,0.19 0.69,0.36 1.06,0.55 0.11,0.06 0.14,0.08 0.24,0.14l0.83 0.43c0.37,0.18 0.69,0.36 1.06,0.55l2.13 1.12c0.8,0.39 1.36,0.71 1.66,1.62 0.45,1.36 0.23,3.1 -0.05,4.46l-0.51 2.18c0.09,-0.07 1.44,-2.06 1.65,-2.37l0.66 -0.95c0.11,-0.17 0.23,-0.32 0.34,-0.5 0.11,-0.17 0.22,-0.31 0.33,-0.48l6.29 -9.16c0.34,-0.45 0.81,-1.22 1.15,-1.68 0.55,-0.73 -0.86,-2.01 -1.36,-2.43l-0.3 -0.26c-1.05,-0.85 -1.51,-1.22 -2.68,-1.97 -0.4,-0.26 -5.29,-3.34 -6.02,-2.23l-0.81 1.36c-0.73,1.28 -1.68,2.82 -2.46,4.12l-0.81 1.36c-0.26,0.42 -2.42,3.97 -2.43,4.14z"/>
   <path id="_1_1" class="fil2" d="M44.2 20.76l-0.52 -0.27 -0.61 -1.32c0.04,-0.52 1.9,-3.58 2.49,-4.56l0.14 -0.24 0 0 0.8 -1.35c0.38,-0.63 0.59,-0.98 0.81,-1.36 0.59,-0.97 1.2,-1.98 1.63,-2.74l0.01 -0.02 0.81 -1.36 0.03 -0.05c0.56,-0.84 1.66,-0.78 2.89,-0.33 1.75,0.65 4,2.07 4.28,2.25l0 -0c0.58,0.37 1.01,0.67 1.44,0.99 0.41,0.31 0.79,0.62 1.32,1.04l0.04 0.03 0.29 0.26c0.29,0.25 0.83,0.72 1.23,1.26 0.71,0.95 1.08,2.06 0.28,3.12l0 0.01c-0.19,0.25 -0.37,0.52 -0.55,0.8l0 0c-0.19,0.29 -0.39,0.58 -0.6,0.87l0 -0 -6.27 9.12 -0 0.01 -0.15 0.22 0 0.01 -0.15 0.22 -0.02 0.02 -0.18 0.26 -0 -0 -0.16 0.24 0 0.01 -0.65 0.94 -0.09 0.13c-0.39,0.58 -1.59,2.34 -1.82,2.51l-1.39 -1.49 0.5 -2.13c0.12,-0.61 0.23,-1.3 0.26,-1.97 0.03,-0.6 -0.01,-1.18 -0.17,-1.65 -0.07,-0.2 -0.17,-0.34 -0.29,-0.45 -0.2,-0.17 -0.48,-0.32 -0.82,-0.49l-0.02 -0.01 -2.12 -1.11 -0 0 -0.53 -0.28c-0.13,-0.07 -0.26,-0.14 -0.53,-0.27l-0.02 -0.01 -0.83 -0.43 -0.03 -0.02 -0.11 -0.07 -0.03 -0.01 -0.07 -0.04 0 -0 -0.53 -0.27 -0.01 -0.01zm-0.17 -1.46c0.36,0.19 0.69,0.36 1.06,0.55 0.11,0.06 0.14,0.08 0.24,0.14l0.83 0.43c0.37,0.18 0.69,0.36 1.06,0.55l2.13 1.12c0.8,0.39 1.36,0.71 1.66,1.62 0.45,1.36 0.23,3.1 -0.05,4.46l-0.51 2.18c0.09,-0.07 1.44,-2.06 1.65,-2.37l0.66 -0.95c0.11,-0.17 0.23,-0.32 0.34,-0.5 0.11,-0.17 0.22,-0.31 0.33,-0.48l6.29 -9.16c0.34,-0.45 0.81,-1.22 1.15,-1.68 0.55,-0.73 -0.86,-2.01 -1.36,-2.43l-0.3 -0.26c-1.05,-0.85 -1.51,-1.22 -2.68,-1.97 -0.4,-0.26 -5.29,-3.34 -6.02,-2.23l-0.81 1.36c-0.73,1.28 -1.68,2.82 -2.46,4.12l-0.81 1.36c-0.26,0.42 -2.42,3.97 -2.43,4.14z"/>
  </g>
  <g>
   <path class="fil5" d="M63.36 46.89c0.15,0 0.21,-0.05 0.29,-0.13l0.63 -0.56c0.15,-0.15 0.27,-0.24 0.42,-0.39 0.37,-0.37 0.9,-0.76 1.28,-1.13 0.54,-0.54 1.15,-0.99 1.69,-1.52 0.07,-0.07 0.12,-0.13 0.2,-0.19 0.1,-0.08 0.13,-0.1 0.22,-0.2l2.12 -1.9c0.09,-0.08 0.12,-0.09 0.21,-0.17 0.33,-0.33 0.72,-0.61 1.05,-0.94 0.09,-0.09 0.1,-0.1 0.2,-0.18l1.91 -1.73c0.09,-0.09 0.12,-0.1 0.21,-0.17l2.76 -2.48c0.23,-0.22 0.31,-0.28 0.31,-0.64 0,-0.59 -0.72,-1.81 -0.98,-2.2l-0.46 -0.69c-0.56,-0.83 -1.27,-1.72 -1.98,-2.43l-0.8 -0.8c-0.36,-0.34 -1.02,-0.9 -1.51,-0.9 -0.18,0 -0.5,0.4 -0.61,0.54 -0.26,0.33 -1.05,1.11 -1.38,1.52 -0.09,0.12 -0.2,0.19 -0.29,0.3 -0.1,0.13 -0.16,0.17 -0.27,0.29l-9.94 10.96c-0.06,0.07 -0.06,0.09 -0.12,0.16 -0.07,0.08 -0.09,0.07 -0.13,0.18 -0.09,0.23 0.1,0.69 0.21,0.88 0.43,0.72 0.73,1.04 1.21,1.66 0.41,0.53 1.59,1.62 2.07,2.02 0.27,0.22 1.09,0.85 1.49,0.85z"/>
   <path id="_1_2" class="fil2" d="M63.87 48.05c-0.15,0.08 -0.31,0.12 -0.51,0.12 -0.3,0 -0.65,-0.14 -0.98,-0.32l-0 0c-0.39,-0.22 -0.83,-0.56 -1.02,-0.72l-0 0c-0.28,-0.23 -0.8,-0.7 -1.28,-1.17 -0.38,-0.37 -0.74,-0.75 -0.95,-1.02l-0 -0.01c-0.1,-0.13 -0.22,-0.28 -0.32,-0.41 -0.33,-0.41 -0.6,-0.75 -0.97,-1.37 -0.12,-0.2 -0.29,-0.56 -0.37,-0.91l0 0 0 -0 -0 0 0 -0c-0.1,-0.43 -0.12,-0.89 0.05,-1.33l0 -0.01c0.14,-0.35 0.22,-0.44 0.38,-0.58l0.02 -0.03 0.06 -0.08 0.05 -0.06 9.94 -10.96 0.02 -0.01 0.09 -0.1 0.01 -0.01c0.04,-0.04 0.07,-0.08 0.1,-0.11 0.08,-0.11 0.17,-0.18 0.25,-0.26l0.01 -0.01 0.04 -0.04c0.19,-0.24 0.5,-0.56 0.79,-0.87 0.25,-0.26 0.49,-0.52 0.58,-0.63 0.07,-0.09 0.21,-0.27 0.37,-0.43 0.26,-0.26 0.58,-0.49 0.92,-0.49 0.36,0 0.72,0.14 1.06,0.34 0.39,0.23 0.77,0.56 1.02,0.8l0.02 0.01 0.8 0.8 -0 0c0.38,0.38 0.75,0.79 1.08,1.2 0.37,0.46 0.73,0.94 1.03,1.39l0 0.01 0.46 0.69 0 0.01c0.18,0.28 0.56,0.91 0.83,1.5l0 0.01c0.23,0.51 0.39,1.05 0.39,1.53 0,0.99 -0.18,1.16 -0.69,1.65l-0.01 0.01 -0.02 0.01 -0.02 0.02 -2.76 2.48 -0.04 0.03 -0.09 0.07 -0.02 0.02 -0.02 0.01 -0.04 0.04 -1.91 1.73 -0.04 0.03 -0.08 0.07 -0.04 0.04c-0.22,0.22 -0.41,0.39 -0.61,0.55l-0 -0c-0.15,0.13 -0.3,0.26 -0.45,0.4l0 -0c-0.1,0.1 -0.16,0.14 -0.23,0.19l-0 -0 -0.02 0.02 0 0 -2.12 1.9 -0 -0c-0.12,0.12 -0.15,0.14 -0.25,0.22l-0.01 0.01 -0.01 0.01 0 0 -0.02 0.02 -0.02 0.03 -0.07 0.07 -0.02 0.01c-0.27,0.26 -0.56,0.51 -0.85,0.75 -0.28,0.24 -0.56,0.48 -0.84,0.76 -0.21,0.21 -0.46,0.42 -0.7,0.62l-0 0c-0.19,0.16 -0.39,0.33 -0.57,0.51l-0 -0c-0.16,0.16 -0.2,0.2 -0.25,0.24l-0.16 0.14 -0.05 0.04 -0.58 0.52 0 0c-0.1,0.1 -0.2,0.19 -0.36,0.27l-0.01 0.01zm4.49 -3.99l0 0 -0 -0 -0 0z"/>
  </g>
  <g>
   <path class="fil6" d="M32.32 13.79c0.6,0.32 1.81,0.85 2.49,1.18l0.92 0.44c0.13,0.06 0.21,0.09 0.34,0.15l5.93 2.81c0.09,0.04 0.26,0.12 0.35,0.14 0.39,-0.74 1.45,-2.41 1.94,-3.23l1.96 -3.25c0.14,-0.23 0.26,-0.44 0.39,-0.66 0.21,-0.35 1.93,-3.08 1.93,-3.28 0,-0.49 -0.21,-0.68 -0.5,-1.01 -0.35,-0.39 -0.78,-0.75 -1.22,-1.06 -0.67,-0.47 -1.02,-0.67 -1.66,-1.06 -0.11,-0.07 -0.19,-0.1 -0.29,-0.16l-0.89 -0.48c-0.22,-0.11 -0.39,-0.21 -0.61,-0.3 -0.11,-0.04 -0.19,-0.09 -0.31,-0.15l-0.64 -0.27c-0.47,-0.19 -1.91,-0.8 -3,-0.9l-0.53 0c-0.31,0.04 -0.55,0.15 -0.68,0.37 -0.14,0.25 -0.25,0.47 -0.4,0.72l-1.88 3.37c-0.04,0.07 -0.06,0.12 -0.09,0.18l-3.56 6.43z"/>
   <path id="_1_3" class="fil2" d="M32.32 13.79c0.6,0.32 1.81,0.85 2.49,1.18l0.92 0.44c0.13,0.06 0.21,0.09 0.34,0.15l5.93 2.81c0.09,0.04 0.26,0.12 0.35,0.14 0.39,-0.74 1.45,-2.41 1.94,-3.23l1.96 -3.25c0.14,-0.23 0.26,-0.44 0.39,-0.66 0.21,-0.35 1.93,-3.08 1.93,-3.28 0,-0.49 -0.21,-0.68 -0.5,-1.01 -0.35,-0.39 -0.78,-0.75 -1.22,-1.06 -0.67,-0.47 -1.02,-0.67 -1.66,-1.06 -0.11,-0.07 -0.19,-0.1 -0.29,-0.16l-0.89 -0.48c-0.22,-0.11 -0.39,-0.21 -0.61,-0.3 -0.11,-0.04 -0.19,-0.09 -0.31,-0.15l-0.64 -0.27c-0.47,-0.19 -1.91,-0.8 -3,-0.9l-0.53 0c-0.31,0.04 -0.55,0.15 -0.68,0.37 -0.14,0.25 -0.25,0.47 -0.4,0.72l-1.88 3.37c-0.04,0.07 -0.06,0.12 -0.09,0.18l-3.56 6.43zm1.25 1.95c-0.59,-0.27 -1.22,-0.56 -1.61,-0.77l-0.42 -1.93 3.55 -6.4 -0 -0 0.05 -0.09 0 0 0.04 -0.08 0.02 -0.04 1.88 -3.37 0 0 0.17 -0.31 0 -0.01 0.22 -0.4 0.01 -0.01c0.17,-0.3 0.4,-0.52 0.66,-0.66l0 0c0.21,-0.11 0.45,-0.18 0.71,-0.21l0.08 -0.01 0.53 0 0.06 0.01c1.14,0.1 2.57,0.69 3.14,0.92l0.08 0.03 0.01 0.01 0.64 0.27 0.04 0.02 0.1 0.05 0 0.01c0.04,0.02 0.08,0.04 0.14,0.07 0.21,0.09 0.36,0.16 0.52,0.24l-0 0 0.16 0.08 0.02 0.01 0.89 0.48 0 0.01 0.11 0.06c0.08,0.04 0.15,0.08 0.22,0.12l0.22 0.13c0.51,0.31 0.84,0.51 1.49,0.97 0.26,0.19 0.52,0.38 0.75,0.58 0.22,0.19 0.44,0.41 0.64,0.63l-0 0 0.06 0.07 0 -0c0.45,0.51 0.78,0.86 0.78,1.9 0,0.6 -1.28,2.68 -1.89,3.67l0 0 -0.25 0.4 0 0 -0.39 0.66 -0 0.01 -1.96 3.25 -0 -0c-0.22,0.37 -0.39,0.64 -0.58,0.95 -0.49,0.8 -1.08,1.75 -1.33,2.22l-0.96 0.53c-0.13,-0.03 -0.33,-0.12 -0.46,-0.18l-0.04 -0.02 -0.01 -0.01 -5.93 -2.81 -0 0 -0.12 -0.05 -0 0c-0.08,-0.03 -0.15,-0.07 -0.22,-0.1l0 0 -0.92 -0.44 0 -0c-0.26,-0.13 -0.58,-0.27 -0.91,-0.42z"/>
  </g>
 </g>
</svg>
