<svg width="20" height="20" viewBox="0 0 20 20" fill="none" xmlns="http://www.w3.org/2000/svg">
<path d="M10 1.875C8.58892 1.87489 7.20213 2.24229 5.97617 2.94101C4.75022 3.63973 3.72737 4.64569 3.00834 5.85985C2.28931 7.074 1.89888 8.45448 1.87551 9.86538C1.85213 11.2763 2.1966 12.6689 2.87501 13.9062L2.21094 16.25C2.149 16.4636 2.14551 16.6899 2.20086 16.9052C2.25621 17.1206 2.36836 17.3172 2.5256 17.4744C2.68284 17.6316 2.87941 17.7438 3.09478 17.7991C3.31015 17.8545 3.53644 17.851 3.75001 17.7891L6.09376 17.125C7.17992 17.7203 8.38781 18.0594 9.6251 18.1164C10.8624 18.1734 12.0963 17.9467 13.2326 17.4538C14.3689 16.9608 15.3774 16.2146 16.1811 15.2721C16.9848 14.3297 17.5624 13.216 17.8698 12.0161C18.1771 10.8162 18.2061 9.56199 17.9544 8.34922C17.7028 7.13645 17.1772 5.99727 16.4178 5.01874C15.6585 4.04022 14.6854 3.24825 13.5731 2.70339C12.4608 2.15852 11.2386 1.87517 10 1.875ZM10 16.875C8.76588 16.8739 7.5546 16.542 6.49219 15.9141C6.39416 15.8594 6.28411 15.8299 6.17188 15.8281C6.1138 15.8282 6.05599 15.8361 6.00001 15.8516L3.40626 16.5938L4.14844 14C4.17128 13.9179 4.17751 13.8321 4.16678 13.7476C4.15604 13.6631 4.12856 13.5816 4.08594 13.5078C3.312 12.2033 2.99123 10.6794 3.17358 9.17352C3.35593 7.66766 4.03117 6.26439 5.09412 5.18227C6.15707 4.10015 7.54806 3.39994 9.05041 3.19072C10.5528 2.98149 12.0821 3.27499 13.4003 4.02549C14.7185 4.776 15.7515 5.94138 16.3383 7.34011C16.9252 8.73884 17.033 10.2924 16.6449 11.7588C16.2569 13.2251 15.3948 14.522 14.1929 15.4474C12.991 16.3728 11.5169 16.8747 10 16.875ZM14.1016 11.1797L12.5 10.2656C12.3082 10.1552 12.0902 10.0984 11.869 10.1012C11.6477 10.1039 11.4312 10.1661 11.2422 10.2813L10.3125 10.8359C9.83825 10.557 9.44297 10.1618 9.16407 9.6875L9.71876 8.75781C9.83387 8.56881 9.89606 8.35233 9.89881 8.13105C9.90156 7.90976 9.84477 7.69181 9.73438 7.5L8.82032 5.89844C8.71867 5.72079 8.57198 5.57309 8.39505 5.47022C8.21811 5.36735 8.01718 5.31295 7.81251 5.3125C7.06794 5.3125 6.35375 5.60774 5.82653 6.1335C5.2993 6.65926 5.00208 7.37262 5.00001 8.11719C5.00001 9.94127 5.72408 11.6908 7.01317 12.9813C8.30226 14.2719 10.0509 14.9979 11.875 15H11.8828C12.6274 14.9979 13.3408 14.7007 13.8665 14.1735C14.3923 13.6463 14.6875 12.9321 14.6875 12.1875C14.6871 11.9828 14.6327 11.7819 14.5298 11.605C14.4269 11.428 14.2792 11.2813 14.1016 11.1797ZM11.8828 13.75C11.1428 13.751 10.4099 13.606 9.72602 13.3233C9.04215 13.0406 8.42078 12.6257 7.89753 12.1025C7.37427 11.5792 6.9594 10.9579 6.67668 10.274C6.39397 9.59012 6.24898 8.85719 6.25001 8.11719C6.24988 7.71154 6.4083 7.3219 6.69147 7.03144C6.97463 6.74098 7.36011 6.57269 7.76563 6.5625L8.64844 8.11719L7.91407 9.33594C7.86324 9.42286 7.83389 9.52067 7.82845 9.62122C7.82302 9.72177 7.84165 9.82216 7.88282 9.91406C8.31824 10.8965 9.10354 11.6818 10.0859 12.1172C10.1778 12.1584 10.2782 12.177 10.3788 12.1716C10.4793 12.1661 10.5771 12.1368 10.6641 12.0859L11.8828 11.3516L13.4375 12.2344C13.4273 12.6399 13.259 13.0254 12.9686 13.3085C12.6781 13.5917 12.2885 13.7501 11.8828 13.75Z" fill="white"/>
</svg>
