<?xml version="1.0" encoding="UTF-8"?><svg width="24" height="24" id="a" xmlns="http://www.w3.org/2000/svg" viewBox="0 0 25.04 25.03"><defs><style>.b{fill:#ebe7d6;}</style></defs><path class="b" d="M12.52,6.1c-3.55,0-6.42,2.87-6.42,6.42s2.87,6.42,6.42,6.42,6.42-2.87,6.42-6.42-2.87-6.42-6.42-6.42Zm0,10.59c-2.3,0-4.17-1.87-4.17-4.17s1.87-4.17,4.17-4.17,4.17,1.87,4.17,4.17-1.88,4.17-4.17,4.17h0ZM20.7,5.84c0,.83-.67,1.5-1.5,1.5s-1.5-.67-1.5-1.5,.67-1.5,1.5-1.5,1.5,.67,1.5,1.5Zm4.25,1.52c-.09-2.01-.55-3.78-2.02-5.25C21.47,.65,19.69,.19,17.68,.09,15.62-.03,9.42-.03,7.36,.09c-2,.09-3.78,.55-5.25,2.02S.19,5.34,.09,7.35C-.03,9.42-.03,15.61,.09,17.68c.09,2.01,.55,3.78,2.02,5.25,1.47,1.46,3.24,1.92,5.25,2.02,2.07,.12,8.26,.12,10.33,0,2.01-.09,3.78-.55,5.25-2.02,1.46-1.46,1.92-3.24,2.02-5.25,.12-2.07,.12-8.26,0-10.32h0Zm-2.67,12.54c-.44,1.09-1.28,1.94-2.38,2.38-1.65,.65-5.56,.5-7.38,.5s-5.74,.15-7.38-.5c-1.09-.44-1.94-1.28-2.38-2.38-.65-1.65-.5-5.56-.5-7.38s-.15-5.74,.5-7.38c.44-1.09,1.28-1.94,2.38-2.38,1.65-.65,5.56-.5,7.38-.5s5.74-.15,7.38,.5c1.09,.44,1.94,1.28,2.38,2.38,.65,1.65,.5,5.56,.5,7.38s.15,5.74-.5,7.38Z"/></svg>