<svg width="140" height="38" viewBox="0 0 140 38" fill="none" xmlns="http://www.w3.org/2000/svg">
<path d="M19.78 9.20001L24 13.42L8.44 29L0 20.55L4.22 16.33L8.44 20.55L19.78 9.20001ZM19.78 12L8.44 23.36L4.22 19.19L2.81 20.55L8.44 26.17L21.19 13.42L19.78 12Z" fill="white"/>
<path d="M33.2 28C32.912 28 32.768 27.864 32.768 27.592C32.768 27.48 32.792 27.352 32.84 27.208L39.056 12.4C39.168 12.128 39.288 11.944 39.416 11.848C39.56 11.736 39.76 11.68 40.016 11.68H41.768C42.024 11.68 42.216 11.736 42.344 11.848C42.472 11.944 42.592 12.128 42.704 12.4L48.92 27.208C48.968 27.352 48.992 27.48 48.992 27.592C48.992 27.864 48.848 28 48.56 28H45.656C45.432 28 45.264 27.968 45.152 27.904C45.056 27.824 44.968 27.688 44.888 27.496L43.784 24.664H37.952L36.872 27.496C36.792 27.688 36.696 27.824 36.584 27.904C36.488 27.968 36.328 28 36.104 28H33.2ZM42.872 21.904L40.88 16.72L38.864 21.904H42.872ZM53.0776 28C52.6936 28 52.4136 27.92 52.2376 27.76C52.0776 27.584 51.9976 27.32 51.9976 26.968V19.264H51.0376C50.6536 19.264 50.3896 19.184 50.2456 19.024C50.1016 18.864 50.0296 18.6 50.0296 18.232V17.488C50.0296 17.12 50.1016 16.864 50.2456 16.72C50.3896 16.56 50.6536 16.48 51.0376 16.48H51.9976V15.856C51.9976 14.416 52.3816 13.304 53.1496 12.52C53.9336 11.72 55.1096 11.32 56.6776 11.32C58.2616 11.32 59.5016 11.648 60.3976 12.304C60.5736 12.432 60.6616 12.56 60.6616 12.688C60.6616 12.784 60.6216 12.896 60.5416 13.024L59.7976 14.248C59.7016 14.408 59.5896 14.488 59.4616 14.488C59.3816 14.488 59.2856 14.456 59.1736 14.392C58.6456 14.104 58.1176 13.96 57.5896 13.96C56.9976 13.96 56.5736 14.104 56.3176 14.392C56.0776 14.68 55.9576 15.128 55.9576 15.736V16.48H58.4536C58.8376 16.48 59.1016 16.56 59.2456 16.72C59.3896 16.864 59.4616 17.12 59.4616 17.488V18.232C59.4616 18.6 59.3896 18.864 59.2456 19.024C59.1016 19.184 58.8376 19.264 58.4536 19.264H55.9576V26.968C55.9576 27.32 55.8776 27.584 55.7176 27.76C55.5576 27.92 55.2776 28 54.8776 28H53.0776ZM62.1718 28C61.7718 28 61.4838 27.92 61.3078 27.76C61.1478 27.584 61.0678 27.32 61.0678 26.968V17.176C61.0678 16.904 61.1158 16.72 61.2118 16.624C61.3078 16.528 61.4998 16.48 61.7878 16.48H63.7078C63.8998 16.48 64.0358 16.512 64.1158 16.576C64.2118 16.64 64.2678 16.752 64.2838 16.912L64.3798 17.68C65.3398 16.64 66.5398 16.12 67.9798 16.12C68.4438 16.12 68.8198 16.16 69.1078 16.24C69.4118 16.304 69.6758 16.416 69.8998 16.576C70.0438 16.688 70.1158 16.8 70.1158 16.912C70.1158 16.96 70.0998 17.032 70.0678 17.128L69.4678 18.928C69.4038 19.12 69.2998 19.216 69.1558 19.216C69.0918 19.216 69.0118 19.192 68.9158 19.144C68.4998 18.936 68.0198 18.832 67.4758 18.832C66.7718 18.832 66.1878 19.032 65.7238 19.432C65.2598 19.832 65.0278 20.368 65.0278 21.04V26.968C65.0278 27.32 64.9478 27.584 64.7878 27.76C64.6278 27.92 64.3478 28 63.9478 28H62.1718ZM77.8546 28.36C75.7266 28.36 74.0706 27.816 72.8866 26.728C71.7186 25.624 71.1346 24.128 71.1346 22.24C71.1346 20.352 71.7186 18.864 72.8866 17.776C74.0706 16.672 75.7266 16.12 77.8546 16.12C79.9986 16.12 81.6546 16.672 82.8226 17.776C84.0066 18.864 84.5986 20.352 84.5986 22.24C84.5986 24.128 84.0066 25.624 82.8226 26.728C81.6546 27.816 79.9986 28.36 77.8546 28.36ZM77.8546 25.504C78.7666 25.504 79.4626 25.232 79.9426 24.688C80.4226 24.144 80.6626 23.328 80.6626 22.24C80.6626 21.168 80.4226 20.36 79.9426 19.816C79.4626 19.272 78.7666 19 77.8546 19C76.9586 19 76.2706 19.272 75.7906 19.816C75.3106 20.36 75.0706 21.168 75.0706 22.24C75.0706 23.312 75.3106 24.128 75.7906 24.688C76.2706 25.232 76.9586 25.504 77.8546 25.504ZM88.8901 28C88.4901 28 88.2021 27.92 88.0261 27.76C87.8661 27.584 87.7861 27.32 87.7861 26.968V14.608H83.8501C83.4661 14.608 83.2021 14.536 83.0581 14.392C82.9141 14.232 82.8421 13.968 82.8421 13.6V12.712C82.8421 12.344 82.9141 12.08 83.0581 11.92C83.2021 11.76 83.4661 11.68 83.8501 11.68H95.7061C96.0901 11.68 96.3541 11.76 96.4981 11.92C96.6581 12.08 96.7381 12.344 96.7381 12.712V13.6C96.7381 13.952 96.6581 14.208 96.4981 14.368C96.3541 14.528 96.0901 14.608 95.7061 14.608H91.7701V26.968C91.7701 27.32 91.6821 27.584 91.5061 27.76C91.3461 27.92 91.0661 28 90.6661 28H88.8901ZM101.691 28.36C99.5626 28.36 97.9066 27.816 96.7226 26.728C95.5546 25.624 94.9706 24.128 94.9706 22.24C94.9706 20.352 95.5546 18.864 96.7226 17.776C97.9066 16.672 99.5626 16.12 101.691 16.12C103.835 16.12 105.491 16.672 106.659 17.776C107.843 18.864 108.435 20.352 108.435 22.24C108.435 24.128 107.843 25.624 106.659 26.728C105.491 27.816 103.835 28.36 101.691 28.36ZM101.691 25.504C102.603 25.504 103.299 25.232 103.779 24.688C104.259 24.144 104.499 23.328 104.499 22.24C104.499 21.168 104.259 20.36 103.779 19.816C103.299 19.272 102.603 19 101.691 19C100.795 19 100.107 19.272 99.6266 19.816C99.1466 20.36 98.9066 21.168 98.9066 22.24C98.9066 23.312 99.1466 24.128 99.6266 24.688C100.107 25.232 100.795 25.504 101.691 25.504ZM111.484 28C111.1 28 110.82 27.92 110.644 27.76C110.484 27.584 110.404 27.32 110.404 26.968V12.736C110.404 12.384 110.484 12.12 110.644 11.944C110.82 11.768 111.1 11.68 111.484 11.68H116.524C119.26 11.68 121.34 12.336 122.764 13.648C124.188 14.96 124.9 17.024 124.9 19.84C124.9 22.624 124.18 24.68 122.74 26.008C121.3 27.336 119.228 28 116.524 28H111.484ZM116.716 25.096C118.14 25.096 119.204 24.704 119.908 23.92C120.612 23.12 120.964 21.76 120.964 19.84C120.964 17.92 120.612 16.568 119.908 15.784C119.204 15 118.14 14.608 116.716 14.608H114.364V25.096H116.716ZM132.37 28.36C130.242 28.36 128.586 27.816 127.402 26.728C126.234 25.624 125.65 24.128 125.65 22.24C125.65 20.352 126.234 18.864 127.402 17.776C128.586 16.672 130.242 16.12 132.37 16.12C134.514 16.12 136.17 16.672 137.338 17.776C138.522 18.864 139.114 20.352 139.114 22.24C139.114 24.128 138.522 25.624 137.338 26.728C136.17 27.816 134.514 28.36 132.37 28.36ZM132.37 25.504C133.282 25.504 133.978 25.232 134.458 24.688C134.938 24.144 135.178 23.328 135.178 22.24C135.178 21.168 134.938 20.36 134.458 19.816C133.978 19.272 133.282 19 132.37 19C131.474 19 130.786 19.272 130.306 19.816C129.826 20.36 129.586 21.168 129.586 22.24C129.586 23.312 129.826 24.128 130.306 24.688C130.786 25.232 131.474 25.504 132.37 25.504Z" fill="white"/>
</svg>
