<svg width="40" height="40" viewBox="0 0 40 40" fill="none" xmlns="http://www.w3.org/2000/svg">
<path d="M15.8 10H24.2C27.4 10 30 12.6 30 15.8V24.2C30 25.7383 29.3889 27.2135 28.3012 28.3012C27.2135 29.3889 25.7383 30 24.2 30H15.8C12.6 30 10 27.4 10 24.2V15.8C10 14.2617 10.6111 12.7865 11.6988 11.6988C12.7865 10.6111 14.2617 10 15.8 10ZM15.6 12C14.6452 12 13.7295 12.3793 13.0544 13.0544C12.3793 13.7295 12 14.6452 12 15.6V24.4C12 26.39 13.61 28 15.6 28H24.4C25.3548 28 26.2705 27.6207 26.9456 26.9456C27.6207 26.2705 28 25.3548 28 24.4V15.6C28 13.61 26.39 12 24.4 12H15.6ZM25.25 13.5C25.5815 13.5 25.8995 13.6317 26.1339 13.8661C26.3683 14.1005 26.5 14.4185 26.5 14.75C26.5 15.0815 26.3683 15.3995 26.1339 15.6339C25.8995 15.8683 25.5815 16 25.25 16C24.9185 16 24.6005 15.8683 24.3661 15.6339C24.1317 15.3995 24 15.0815 24 14.75C24 14.4185 24.1317 14.1005 24.3661 13.8661C24.6005 13.6317 24.9185 13.5 25.25 13.5ZM20 15C21.3261 15 22.5979 15.5268 23.5355 16.4645C24.4732 17.4021 25 18.6739 25 20C25 21.3261 24.4732 22.5979 23.5355 23.5355C22.5979 24.4732 21.3261 25 20 25C18.6739 25 17.4021 24.4732 16.4645 23.5355C15.5268 22.5979 15 21.3261 15 20C15 18.6739 15.5268 17.4021 16.4645 16.4645C17.4021 15.5268 18.6739 15 20 15ZM20 17C19.2044 17 18.4413 17.3161 17.8787 17.8787C17.3161 18.4413 17 19.2044 17 20C17 20.7956 17.3161 21.5587 17.8787 22.1213C18.4413 22.6839 19.2044 23 20 23C20.7956 23 21.5587 22.6839 22.1213 22.1213C22.6839 21.5587 23 20.7956 23 20C23 19.2044 22.6839 18.4413 22.1213 17.8787C21.5587 17.3161 20.7956 17 20 17Z" fill="white"/>
</svg>
