<svg width="40" height="40" viewBox="0 0 40 40" fill="none" xmlns="http://www.w3.org/2000/svg">
<path d="M18 23L23.19 20L18 17V23ZM29.56 15.17C29.69 15.64 29.78 16.27 29.84 17.07C29.91 17.87 29.94 18.56 29.94 19.16L30 20C30 22.19 29.84 23.8 29.56 24.83C29.31 25.73 28.73 26.31 27.83 26.56C27.36 26.69 26.5 26.78 25.18 26.84C23.88 26.91 22.69 26.94 21.59 26.94L20 27C15.81 27 13.2 26.84 12.17 26.56C11.27 26.31 10.69 25.73 10.44 24.83C10.31 24.36 10.22 23.73 10.16 22.93C10.09 22.13 10.06 21.44 10.06 20.84L10 20C10 17.81 10.16 16.2 10.44 15.17C10.69 14.27 11.27 13.69 12.17 13.44C12.64 13.31 13.5 13.22 14.82 13.16C16.12 13.09 17.31 13.06 18.41 13.06L20 13C24.19 13 26.8 13.16 27.83 13.44C28.73 13.69 29.31 14.27 29.56 15.17Z" fill="white"/>
</svg>
